<svg width="48" height="48" viewBox="0 0 48 48" fill="none" xmlns="http://www.w3.org/2000/svg">
<path d="M42.936 6.41188C44.362 9.35988 40.026 9.67388 40.248 10.9899C40.656 13.3619 40.378 16.8839 40.064 20.3499C39.524 26.2239 43.918 40.2899 34.764 45.9419C33.04 47.0179 28.944 47.6099 24.904 47.7019H24.884H24.866C20.826 47.6099 16.174 47.0179 14.45 45.9419C5.314 40.2899 9.706 26.2239 9.188 20.3499C8.854 16.8839 8.576 13.3619 9.002 10.9899C9.224 9.67388 4.888 9.37788 6.316 6.41188C7.538 3.87188 10.56 6.11588 11.318 5.31788C15.192 1.29988 19.9 0.221883 23.606 0.129883H25.646C29.332 0.315883 34.04 1.31588 37.932 5.31788C38.692 6.11588 41.694 3.87388 42.936 6.41188ZM22.864 21.8119C22.698 21.8879 22.42 23.7039 23.272 23.7959C23.848 23.8519 25.422 24.0359 25.792 23.7959C26.516 23.3319 26.442 22.2199 26.034 21.9419C25.348 21.4979 23.05 21.7219 22.864 21.8139V21.8119ZM18.16 8.21188C16.25 7.98988 13.044 9.76788 12.562 13.5499C12.042 17.4779 16.676 21.3699 21.124 17.4779C23.516 15.3839 24.35 8.93388 18.16 8.21188V8.21188ZM31.06 8.21188C24.868 8.93388 25.702 15.3839 28.094 17.4779C32.54 21.3699 37.174 17.4779 36.654 13.5499C36.192 9.76988 32.986 7.98988 31.058 8.21188H31.06Z" fill="#8CC5E7"/>
<path d="M24.626 17.9759C25.794 17.8099 28.592 19.1439 28.406 20.7199C28.184 22.5539 21.196 22.7959 20.826 20.6079C20.604 19.2739 21.66 18.4219 24.626 17.9759ZM40.396 32.7479C39.822 32.7279 39.452 31.9679 39.452 31.5059C39.452 30.6719 39.562 29.6899 40.174 29.2639C41.434 28.3919 42.434 32.7659 40.396 32.7479ZM8.83601 32.7479C6.79601 32.7659 7.796 28.3919 9.058 29.2639C9.67 29.6899 9.78 30.6719 9.78 31.5039C9.78 31.9699 9.41001 32.7279 8.83601 32.7479ZM36.524 46.1839C36.894 46.7219 36.912 47.0919 36.32 47.3699C34.06 48.4079 32.04 47.0179 32.8 46.6299C34.41 45.8139 35.412 44.5339 36.524 46.1839ZM12.708 46.3699C13.82 44.7199 14.822 45.9979 16.434 46.8139C17.194 47.2039 15.174 48.5939 12.914 47.5539C12.32 47.2779 12.338 46.9059 12.708 46.3699V46.3699Z" fill="#B8937F"/>
<path d="M39.47 6.85787C39.562 6.46787 40.526 6.28187 41.064 6.94987C41.712 7.74587 40.118 8.83987 40.044 8.39587C39.86 7.18987 39.36 7.24587 39.47 6.85587V6.85787ZM9.76199 6.85787C9.87399 7.24587 9.37199 7.18987 9.18799 8.39587C9.11399 8.83987 7.51999 7.74587 8.16799 6.94987C8.68799 6.28187 9.64999 6.46787 9.76199 6.85787ZM31.482 15.8819C30.9219 15.8819 30.3847 15.6594 29.9886 15.2633C29.5925 14.8672 29.37 14.33 29.37 13.7699C29.37 13.2097 29.5925 12.6725 29.9886 12.2765C30.3847 11.8804 30.9219 11.6579 31.482 11.6579C32.0421 11.6579 32.5793 11.8804 32.9754 12.2765C33.3715 12.6725 33.594 13.2097 33.594 13.7699C33.594 14.33 33.3715 14.8672 32.9754 15.2633C32.5793 15.6594 32.0421 15.8819 31.482 15.8819ZM30.926 13.5279C31.0167 13.5328 31.1074 13.5193 31.1926 13.488C31.2779 13.4567 31.3558 13.4084 31.4218 13.346C31.4877 13.2835 31.5402 13.2083 31.5761 13.1249C31.612 13.0415 31.6305 12.9517 31.6305 12.8609C31.6305 12.7701 31.612 12.6802 31.5761 12.5968C31.5402 12.5134 31.4877 12.4382 31.4218 12.3758C31.3558 12.3134 31.2779 12.265 31.1926 12.2338C31.1074 12.2025 31.0167 12.1889 30.926 12.1939C30.7554 12.2032 30.5949 12.2776 30.4774 12.4016C30.36 12.5257 30.2945 12.69 30.2945 12.8609C30.2945 13.0317 30.36 13.1961 30.4774 13.3201C30.5949 13.4442 30.7554 13.5185 30.926 13.5279V13.5279ZM22.716 18.8679C22.938 18.0139 23.716 17.7359 24.348 17.7179C25.96 17.6799 26.572 18.5519 26.628 19.2379C26.738 20.4039 22.216 20.6819 22.716 18.8659V18.8679ZM17.75 15.8799C17.1899 15.8799 16.6527 15.6574 16.2566 15.2613C15.8605 14.8652 15.638 14.328 15.638 13.7679C15.638 13.2077 15.8605 12.6705 16.2566 12.2745C16.6527 11.8784 17.1899 11.6559 17.75 11.6559C18.3101 11.6559 18.8473 11.8784 19.2434 12.2745C19.6395 12.6705 19.862 13.2077 19.862 13.7679C19.862 14.328 19.6395 14.8652 19.2434 15.2613C18.8473 15.6574 18.3101 15.8799 17.75 15.8799V15.8799ZM18.306 13.5259C18.3967 13.5308 18.4874 13.5173 18.5726 13.486C18.6579 13.4547 18.7358 13.4064 18.8018 13.344C18.8677 13.2815 18.9202 13.2063 18.9561 13.1229C18.992 13.0395 19.0105 12.9497 19.0105 12.8589C19.0105 12.7681 18.992 12.6782 18.9561 12.5948C18.9202 12.5114 18.8677 12.4362 18.8018 12.3738C18.7358 12.3114 18.6579 12.263 18.5726 12.2318C18.4874 12.2005 18.3967 12.1869 18.306 12.1919C18.1354 12.2012 17.9749 12.2756 17.8574 12.3996C17.74 12.5237 17.6745 12.688 17.6745 12.8589C17.6745 13.0297 17.74 13.1941 17.8574 13.3181C17.9749 13.4422 18.1354 13.5165 18.306 13.5259Z" fill="black"/>
</svg>

