<svg width="48" height="48" viewBox="0 0 48 48" fill="none" xmlns="http://www.w3.org/2000/svg">
<path d="M28.161 29.55C28.6263 30.4933 29.3484 31.2862 30.2442 31.8376C31.14 32.389 32.1731 32.6765 33.225 32.667C35.352 32.667 36.711 31.6035 36.711 30.135C36.711 28.3755 35.3145 27.7515 32.9745 26.727L31.6905 26.1765C27.987 24.5985 25.5255 22.6215 25.5255 18.4425C25.5255 14.592 28.4595 11.6625 33.0435 11.6625C34.5312 11.5545 36.0178 11.8875 37.3174 12.6199C38.6169 13.3522 39.6717 14.4514 40.35 15.78L36.3525 18.3465C36.0907 17.6881 35.6349 17.125 35.0454 16.732C34.456 16.3389 33.7609 16.1345 33.0525 16.146C32.7437 16.1149 32.4318 16.1485 32.1368 16.2447C31.8417 16.3408 31.57 16.4974 31.3388 16.7045C31.1076 16.9115 30.9221 17.1645 30.7941 17.4472C30.6662 17.7299 30.5985 18.0362 30.5955 18.3465C30.5955 19.887 31.5495 20.5095 33.7455 21.4635L35.0295 22.0125C39.3915 23.883 41.853 25.7895 41.853 30.0765C41.853 34.698 38.223 37.23 33.3465 37.23C31.447 37.3508 29.5531 36.9194 27.8933 35.9878C26.2336 35.0563 24.8788 33.6644 23.9925 31.98L28.161 29.55ZM10.029 30C10.836 31.431 11.5695 32.64 13.329 32.64C15.015 32.64 16.08 31.98 16.08 29.415V11.9625H21.213V29.487C21.213 34.8015 18.096 37.221 13.548 37.221C11.9415 37.3079 10.3463 36.9065 8.97222 36.0696C7.59819 35.2326 6.50971 33.9994 5.84998 32.532L10.029 30Z" fill="#F5DE19"/>
</svg>

