<svg width="48" height="48" viewBox="0 0 48 48" fill="none" xmlns="http://www.w3.org/2000/svg">
<path d="M24 27.7109C26.0711 27.7109 27.75 26.032 27.75 23.9609C27.75 21.8899 26.0711 20.2109 24 20.2109C21.9289 20.2109 20.25 21.8899 20.25 23.9609C20.25 26.032 21.9289 27.7109 24 27.7109Z" fill="#00D8FF"/>
<path d="M24 32.5592C19.4927 32.6682 14.9967 32.0606 10.68 30.7592C8.68593 30.127 6.8261 29.1313 5.1945 27.8222C4.5719 27.3749 4.05341 26.7983 3.67461 26.1319C3.29582 25.4654 3.06568 24.7249 3 23.9612C3 21.4817 5.724 19.0517 10.287 17.4617C14.7191 16.0528 19.3499 15.37 24 15.4397C28.5881 15.3756 33.1568 16.046 37.533 17.4257C39.4534 18.0379 41.2502 18.9855 42.84 20.2247C43.452 20.651 43.9627 21.2067 44.3359 21.8525C44.7092 22.4982 44.9359 23.2181 45 23.9612C45 26.5382 41.955 29.1497 37.05 30.7727C32.8169 32.0317 28.4157 32.6342 24 32.5592V32.5592ZM24 17.2337C19.5512 17.1742 15.1212 17.8233 10.8765 19.1567C6.6765 20.6222 4.794 22.6262 4.794 23.9567C4.794 25.3487 6.8175 27.5372 11.2605 29.0567C15.3901 30.2954 19.6899 30.8721 24 30.7652C28.2246 30.8407 32.4359 30.2691 36.4875 29.0702C41.1 27.5417 43.2 25.3502 43.2 23.9612C43.1243 23.4845 42.9506 23.0287 42.6898 22.6226C42.4291 22.2165 42.0869 21.8688 41.685 21.6017C40.2626 20.5024 38.6575 19.6625 36.9435 19.1207C32.757 17.8063 28.3875 17.1693 24 17.2337V17.2337Z" fill="#00D8FF"/>
<path d="M15.48 42.6645C14.7802 42.6805 14.0887 42.5107 13.476 42.1725C11.328 40.9335 10.584 37.3605 11.4855 32.613C12.4794 28.0696 14.2017 23.7169 16.5855 19.7235C18.8216 15.7171 21.6842 12.0943 25.065 8.99246C26.5547 7.63452 28.2733 6.55127 30.141 5.79296C30.8165 5.47637 31.5534 5.31226 32.2995 5.31226C33.0455 5.31226 33.7824 5.47637 34.458 5.79296C36.6915 7.07996 37.431 11.022 36.3885 16.0815C35.3638 20.3783 33.6863 24.4926 31.4145 28.281C29.2571 32.24 26.4845 35.8312 23.2005 38.9205C21.6566 40.3316 19.865 41.4449 17.916 42.204C17.1357 42.4936 16.3121 42.6493 15.48 42.6645V42.6645ZM18.1395 20.6145C15.8656 24.4385 14.215 28.6 13.2495 32.943C12.42 37.3155 13.2165 39.945 14.3745 40.614C15.5745 41.3085 18.4875 40.65 22.0245 37.56C25.1595 34.6004 27.8058 31.1628 29.865 27.375C32.0414 23.7532 33.6505 19.8197 34.6365 15.711C35.6175 10.9485 34.77 8.03246 33.567 7.33946C33.1161 7.1667 32.6343 7.08936 32.152 7.11234C31.6697 7.13532 31.1974 7.25812 30.765 7.47296C29.1025 8.15898 27.5741 9.13291 26.25 10.35C23.02 13.3211 20.2855 16.7894 18.15 20.6235L18.1395 20.6145Z" fill="#00D8FF"/>
<path d="M32.5155 42.684C30.483 42.684 27.9015 41.454 25.2135 39.1425C21.7736 36.0124 18.8625 32.3466 16.593 28.287C14.2391 24.3485 12.5305 20.0588 11.532 15.5805C11.099 13.6102 11.0187 11.5788 11.295 9.58047C11.3589 8.83918 11.5846 8.12093 11.9563 7.47636C12.3279 6.8318 12.8364 6.27662 13.446 5.84997C15.6765 4.55847 19.461 5.88597 23.3235 9.31497C26.5344 12.3482 29.2611 15.856 31.4085 19.716C33.7609 23.5625 35.4875 27.7583 36.5235 32.1465C36.9752 34.189 37.0448 36.2975 36.729 38.3655C36.6539 39.1281 36.4147 39.8654 36.0279 40.5269C35.6411 41.1884 35.1158 41.7585 34.488 42.198C33.8852 42.532 33.2045 42.6998 32.5155 42.684V42.684ZM18.1455 27.384C20.3226 31.2636 23.1034 34.772 26.3835 37.7775C29.757 40.68 32.433 41.304 33.5835 40.6275C34.7835 39.93 35.6685 37.083 34.7565 32.4765C33.7573 28.2869 32.1013 24.2818 29.85 20.61C27.8007 16.9157 25.1981 13.5568 22.1325 10.65C18.4965 7.42197 15.5475 6.70047 14.346 7.39647C13.9715 7.70079 13.6642 8.07945 13.4435 8.50855C13.2227 8.93764 13.0933 9.40785 13.0635 9.88947C12.825 11.6716 12.9027 13.4818 13.293 15.237C14.2535 19.5197 15.8921 23.6214 18.147 27.387L18.1455 27.384Z" fill="#00D8FF"/>
</svg>

