<svg width="48" height="48" viewBox="0 0 48 48" fill="none" xmlns="http://www.w3.org/2000/svg">
<path d="M23.99 0C10.762 0 0 10.764 0 23.992C0 37.232 10.762 48 23.99 48C37.23 48 48 37.23 48 23.992C48 10.764 37.23 0 23.99 0ZM11.816 32.808C14.5628 31.9666 17.4192 31.5366 20.292 31.532C25.12 31.532 29.886 32.756 34.076 35.072C34.326 35.208 34.552 35.656 34.656 36.216C34.756 36.776 34.716 37.35 34.552 37.648C34.4747 37.7897 34.3701 37.9147 34.2441 38.0157C34.1182 38.1167 33.9734 38.1917 33.8183 38.2364C33.6631 38.281 33.5006 38.2945 33.3403 38.2758C33.1799 38.2572 33.0248 38.207 32.884 38.128C29.8064 36.4397 26.4211 35.3867 22.9288 35.0314C19.4366 34.6762 15.9085 35.026 12.554 36.06C12.4 36.1098 12.2376 36.1284 12.0764 36.1149C11.9151 36.1013 11.7581 36.0558 11.6146 35.981C11.4711 35.9061 11.3439 35.8035 11.2405 35.679C11.137 35.5546 11.0593 35.4108 11.012 35.256C10.798 34.556 11.24 32.996 11.816 32.808ZM10.77 23.968C13.8731 23.125 17.0744 22.6979 20.29 22.698C26.078 22.698 31.824 24.098 36.91 26.75C37.268 26.93 37.53 27.238 37.65 27.614C37.7107 27.8039 37.7327 28.004 37.7148 28.2025C37.697 28.401 37.6396 28.594 37.546 28.77C37.092 29.658 36.56 30.256 36.226 30.256C35.9823 30.2549 35.7424 30.196 35.526 30.084C30.8244 27.6294 25.5958 26.3567 20.292 26.376C17.3419 26.3701 14.4045 26.7637 11.56 27.546C11.3702 27.5979 11.1721 27.6119 10.977 27.5872C10.7818 27.5625 10.5934 27.4996 10.4225 27.4021C10.2517 27.3046 10.1017 27.1744 9.98115 27.0189C9.86061 26.8634 9.77187 26.6858 9.72 26.496C9.496 25.652 10.01 24.176 10.77 23.968ZM10.5 18.196C10.2749 18.2538 10.0406 18.2664 9.81054 18.2331C9.58053 18.1999 9.35938 18.1214 9.15986 18.0022C8.96034 17.883 8.78641 17.7255 8.64809 17.5387C8.50978 17.3519 8.40982 17.1396 8.354 16.914C8.108 15.918 8.73 14.762 9.634 14.534C13.121 13.6751 16.6988 13.2393 20.29 13.236C27.19 13.236 33.802 14.788 39.938 17.85C40.3596 18.0596 40.6807 18.4281 40.8307 18.8744C40.9807 19.3207 40.9474 19.8083 40.738 20.23C40.452 20.806 39.832 21.426 39.148 21.426C38.8798 21.425 38.615 21.3656 38.372 21.252C32.7612 18.4373 26.5673 16.9808 20.29 17C17.02 17 13.726 17.402 10.5 18.196Z" fill="#1DB954"/>
</svg>

